# xmcd
#
# Track frame offsets: 
#        150
#        12585
#        25373
#        37381
#        48222
#        58359
#        70808
#        80655
#        91735
#        101970
#        110070
#        120887
#
# Disc length: 1774 seconds
#
# Revision: 0
# Processed by: cddbd v1.5.2PL0 Copyright (c) Steve Scherf et al.
# Submitted via: ExactAudioCopy v0.95b3
#
DISCID=a806ec0c
DTITLE=Johnny Cash - Songbook (Volume 1)
DYEAR=2006
DGENRE=Country
TTITLE0=I Walk The Line
TTITLE1=Folsom Prison Blues
TTITLE2=Home Of The Blues
TTITLE3=Train Of Love
TTITLE4=Get Rhythm
TTITLE5=Give My Love To Rose
TTITLE6=Rock Island Line
TTITLE7=I Love You Because
TTITLE8=I Was There When It Happened
TTITLE9=I Can't Help It
TTITLE10=I Just Thought You'd Like To Know
TTITLE11=Goodnight Irene
EXTD=
EXTT0=
EXTT1=
EXTT2=
EXTT3=
EXTT4=
EXTT5=
EXTT6=
EXTT7=
EXTT8=
EXTT9=
EXTT10=
EXTT11=
PLAYORDER=
